<svg xmlns="http://www.w3.org/2000/svg" width="35.993" height="36" viewBox="0 0 35.993 36"><path id="Icon_awesome-compress-arrows-alt" data-name="Icon awesome-compress-arrows-alt" d="M14.063 20.25H6.188a1.689 1.689 0 00-1.2 2.883l2.313 2.18L.33 32.295a1.129 1.129 0 000 1.589l1.786 1.786a1.129 1.129 0 001.589 0l6.982-6.982 2.187 2.32a1.685 1.685 0 002.876-1.2v-7.87a1.683 1.683 0 00-1.687-1.688zm7.875-4.5h7.875a1.69 1.69 0 001.2-2.883l-2.32-2.18 6.977-6.982a1.129 1.129 0 000-1.589L33.884.33a1.129 1.129 0 00-1.589 0l-6.982 6.983-2.187-2.32a1.685 1.685 0 00-2.876 1.2v7.875a1.683 1.683 0 001.688 1.682zm6.75 9.563l2.32-2.187a1.685 1.685 0 00-1.2-2.876h-7.87a1.683 1.683 0 00-1.687 1.688v7.875a1.69 1.69 0 002.883 1.2l2.18-2.313 6.982 6.982a1.129 1.129 0 001.589 0l1.786-1.786a1.129 1.129 0 000-1.589zM12.867 5l-2.18 2.313L3.705.33a1.129 1.129 0 00-1.589 0L.33 2.116a1.129 1.129 0 000 1.589l6.982 6.982-2.32 2.187a1.685 1.685 0 001.2 2.876h7.875a1.683 1.683 0 001.688-1.687V6.188A1.689 1.689 0 0012.867 5z" transform="translate(-.004 -.004)" fill="#e6c07f"/></svg>