<svg xmlns="http://www.w3.org/2000/svg" viewBox="0 0 32 32"><path d="M11.58 3.59c-1 .79-2 1.64-3 2.56a25.23 25.23 0 00-2.84 3.06 17.35 17.35 0 00-2.16 3.49 9.38 9.38 0 00-.83 3.9 6.6 6.6 0 00.64 3.15q.63 1.18.93 1.68a13.74 13.74 0 011.62-1.56 4 4 0 012.7-.87 5.14 5.14 0 013.63 1.37 4.78 4.78 0 011.47 3.69 5.3 5.3 0 01-1.57 3.65 5.36 5.36 0 01-4.12 1.7 7.12 7.12 0 01-4.12-1.08 8.1 8.1 0 01-2.46-2.6 9.78 9.78 0 01-1.18-3.15A15.92 15.92 0 010 20a15 15 0 011.13-5.84 22 22 0 012.8-4.91 26.62 26.62 0 013.53-3.9c1.24-1.11 2.36-2 3.34-2.75zm18.26 0c-1 .79-2 1.64-3 2.56A24.46 24.46 0 0024 9.21a17.35 17.35 0 00-2.16 3.49 9.23 9.23 0 00-.84 3.9 6.73 6.73 0 00.63 3.15c.43.79.74 1.35.94 1.68a13.74 13.74 0 011.62-1.56A4 4 0 0126.9 19a5.15 5.15 0 013.63 1.37A4.78 4.78 0 0132 24.05a5.3 5.3 0 01-1.57 3.65 5.36 5.36 0 01-4.12 1.7 7.15 7.15 0 01-4.13-1.08 8.18 8.18 0 01-2.45-2.6 9.78 9.78 0 01-1.18-3.14 15.92 15.92 0 01-.29-2.6 14.83 14.83 0 011.13-5.84 22.42 22.42 0 012.79-4.91 26.67 26.67 0 013.54-3.88q1.86-1.66 3.34-2.75z" fill="#e6c07f"/></svg>