<svg xmlns="http://www.w3.org/2000/svg" width="20" height="20" viewBox="0 0 20 20"><path d="M8.1 11.1L.6 3.4a1.48 1.48 0 01.9-.3h17a1.48 1.48 0 01.9.3l-7.5 7.7a2.66 2.66 0 01-3.8 0z"/><path d="M20 4.8v10.6a1.54 1.54 0 01-1.5 1.5h-17A1.54 1.54 0 010 15.4V4.8a.14.14 0 01.2 0L5.3 10a.12.12 0 010 .2L1.7 14a.75.75 0 000 .9.69.69 0 00.5.2.59.59 0 00.4-.2l3.6-3.8c.07-.07.1-.07.1 0l.9.8a3.78 3.78 0 002.8 1.2 4.11 4.11 0 002.8-1.1l.9-.9c0-.07 0-.07.1 0l3.6 3.8a.59.59 0 00.4.2.69.69 0 00.5-.2.75.75 0 000-.9l-3.6-3.8a.12.12 0 010-.2l5.1-5.2a.14.14 0 01.2 0z"/></svg>