<svg xmlns="http://www.w3.org/2000/svg" width="31.5" height="31.5" viewBox="0 0 31.5 31.5"><path id="Icon_awesome-expand-arrows-alt" data-name="Icon awesome-expand-arrows-alt" d="M31.5 24.188v7.875a1.683 1.683 0 01-1.687 1.688h-7.875a1.69 1.69 0 01-1.2-2.883l2.545-2.545-7.533-7.539-7.54 7.545 2.547 2.538a1.69 1.69 0 01-1.2 2.883H1.688A1.683 1.683 0 010 32.063v-7.875a1.69 1.69 0 012.883-1.2l2.545 2.545L12.97 18l-7.543-7.545-2.544 2.553A1.69 1.69 0 010 11.813V3.938A1.683 1.683 0 011.687 2.25h7.876a1.69 1.69 0 011.2 2.883L8.212 7.678l7.538 7.537 7.54-7.545-2.548-2.537a1.69 1.69 0 011.2-2.883h7.875A1.683 1.683 0 0131.5 3.938v7.875a1.69 1.69 0 01-2.883 1.2l-2.545-2.545L18.53 18l7.543 7.545L28.617 23a1.686 1.686 0 012.883 1.188z" transform="translate(0 -2.25)" fill="#e6c07f"/></svg>