<svg xmlns="http://www.w3.org/2000/svg" width="20" height="20" viewBox="0 0 20 20"><path fill="none" d="M0 0h20v20H0z"/><rect x="1" y="1" width="18" height="18" rx="1.91" fill="none" stroke="#e6c07f"/><path d="M14.16 10.34a6.37 6.37 0 00.34-1.58 4.92 4.92 0 00-.56-2.13 4.19 4.19 0 00-3.27-1.8H6.74a.63.63 0 00-.57.67v9a.64.64 0 00.57.68h1.35a.73.73 0 00.67-.68v-1.91h1.91a3.72 3.72 0 003.49-2.25zm-2.25-1.58A1.24 1.24 0 0110.68 10H8.76V7.41h1.92a1.28 1.28 0 011.23 1.35z" fill="none" stroke="#e6c07f"/></svg>