<svg id="logo" xmlns="http://www.w3.org/2000/svg" width="266.601" height="53" viewBox="0 0 266.601 53"><defs><filter id="Path_11" x="0" y="0" width="38.884" height="47.715" filterUnits="userSpaceOnUse"><feOffset dy="3"/><feGaussianBlur result="blur-2"/><feFlood flood-opacity=".502"/><feComposite operator="in" in2="blur-2"/><feComposite in="SourceGraphic"/></filter><filter id="Path_16" x="213.475" y="40.319" width="3.056" height="12.681" filterUnits="userSpaceOnUse"><feOffset dy="3"/><feGaussianBlur result="blur-7"/><feFlood flood-opacity=".502"/><feComposite operator="in" in2="blur-7"/><feComposite in="SourceGraphic"/></filter><filter id="Path_12" x="181.323" y="40.214" width="4.571" height="10.409" filterUnits="userSpaceOnUse"><feOffset dy="3"/><feGaussianBlur result="blur-3"/><feFlood flood-opacity=".502"/><feComposite operator="in" in2="blur-3"/><feComposite in="SourceGraphic"/></filter><filter id="Path_13" x="188.297" y="40.293" width="2.56" height="10.278" filterUnits="userSpaceOnUse"><feOffset dy="3"/><feGaussianBlur result="blur-4"/><feFlood flood-opacity=".502"/><feComposite operator="in" in2="blur-4"/><feComposite in="SourceGraphic"/></filter><filter id="Path_14" x="193.094" y="40.153" width="8.071" height="10.548" filterUnits="userSpaceOnUse"><feOffset dy="3"/><feGaussianBlur result="blur-5"/><feFlood flood-opacity=".502"/><feComposite operator="in" in2="blur-5"/><feComposite in="SourceGraphic"/></filter><filter id="Path_15" x="203.298" y="40.258" width="4.632" height="10.505" filterUnits="userSpaceOnUse"><feOffset dy="3"/><feGaussianBlur result="blur-6"/><feFlood flood-opacity=".502"/><feComposite operator="in" in2="blur-6"/><feComposite in="SourceGraphic"/></filter><filter id="Path_10" x="49.903" y="11.606" width="216.681" height="24.711" filterUnits="userSpaceOnUse"><feOffset dy="3"/><feGaussianBlur result="blur"/><feFlood flood-opacity=".502"/><feComposite operator="in" in2="blur"/><feComposite in="SourceGraphic"/></filter><filter id="Path_17" x="219.091" y="40.258" width="4.579" height="10.505" filterUnits="userSpaceOnUse"><feOffset dy="3"/><feGaussianBlur result="blur-8"/><feFlood flood-opacity=".502"/><feComposite operator="in" in2="blur-8"/><feComposite in="SourceGraphic"/></filter><filter id="Path_18" x="225.499" y="40.336" width="11.24" height="10.479" filterUnits="userSpaceOnUse"><feOffset dy="3"/><feGaussianBlur result="blur-9"/><feFlood flood-opacity=".502"/><feComposite operator="in" in2="blur-9"/><feComposite in="SourceGraphic"/></filter><filter id="Path_19" x="238.297" y="40.258" width="4.588" height="10.505" filterUnits="userSpaceOnUse"><feOffset dy="3"/><feGaussianBlur result="blur-10"/><feFlood flood-opacity=".502"/><feComposite operator="in" in2="blur-10"/><feComposite in="SourceGraphic"/></filter><filter id="Path_20" x="245.366" y="40.345" width="4.902" height="10.287" filterUnits="userSpaceOnUse"><feOffset dy="3"/><feGaussianBlur result="blur-11"/><feFlood flood-opacity=".502"/><feComposite operator="in" in2="blur-11"/><feComposite in="SourceGraphic"/></filter><filter id="Path_21" x="252.279" y="40.31" width="7.548" height="10.295" filterUnits="userSpaceOnUse"><feOffset dy="3"/><feGaussianBlur result="blur-12"/><feFlood flood-opacity=".502"/><feComposite operator="in" in2="blur-12"/><feComposite in="SourceGraphic"/></filter><filter id="Path_22" x="259.349" y="40.327" width="7.252" height="10.278" filterUnits="userSpaceOnUse"><feOffset dy="3"/><feGaussianBlur result="blur-13"/><feFlood flood-opacity=".502"/><feComposite operator="in" in2="blur-13"/><feComposite in="SourceGraphic"/></filter></defs><g id="download"><g filter="url(#Path_10)" transform="translate(-.002)"><path id="Path_10-2" data-name="Path 10" d="M60.569 27.671c0 2.716 0 4.954-.139 6.138-.113.818-.252 1.445-.818 1.558a4.684 4.684 0 01-.871.113c-.174 0-.226.087-.226.165s.139.235.453.235 1.1-.052 1.663-.052h1.132c.061 0 1.106.087 2.342.174s2.716.165 3.935.165c4.806 0 7.357-1.985 8.567-3.256a11.571 11.571 0 003.056-7.975 10.108 10.108 0 00-2.742-7.183c-3.369-3.482-8.541-3.23-11.318-3.23-1.689 0-3.482.087-3.813.087-.139 0-1.924-.087-3.2-.087-.313 0-.453.061-.453.226s.113.174.226.174a4.9 4.9 0 01.958.087c.932.192 1.158.644 1.219 1.611s.052 1.741.052 6.094V27.7zm2.377-5.424v-6.024a.5.5 0 01.34-.566 7.522 7.522 0 011.837-.2c3.361 0 6.591.392 9.246 3.2a10.134 10.134 0 012.716 7.13c0 2.612-.792 5.311-2.264 6.756a9.481 9.481 0 01-6.73 2.612c-3.343 0-4.44-.592-4.806-1.132a6.094 6.094 0 01-.313-2.15c0-.531-.061-3.134-.061-6.094v-3.488zm22.062 2.4V19.47c0-.766.2-1.184.871-1.323a2.551 2.551 0 01.618-.061.244.244 0 00.2-.2c0-.139-.113-.192-.4-.192-.757 0-2.377.052-2.49.052s-1.689-.052-2.516-.052c-.279 0-.392.052-.392.192a.218.218 0 00.2.2 4.022 4.022 0 01.757.087c.54.113.74.479.792 1.3s.061 1.445.061 5.18v4.214a47.545 47.545 0 01-.148 5.224c-.078.705-.165 1.158-.644 1.271a3.875 3.875 0 01-.766.113.2.2 0 00-.2.2c0 .139.148.2.4.2.766 0 2.316-.087 2.455-.087s1.741.087 3.117.087c.279 0 .392-.087.392-.2a.192.192 0 00-.2-.2c-.218 0-.757-.061-1.123-.113-.74-.113-.827-.566-.871-1.271-.113-.984-.113-2.882-.113-5.224zm6.2 8.567c-.479 1.219-.958 2.063-2.09 2.2a5.772 5.772 0 01-.74.061.218.218 0 00-.226.2c0 .139.165.2.479.2 1.019 0 2.264-.087 2.525-.087s1.637.087 2.229.087c.226 0 .366-.061.366-.2s-.052-.2-.252-.2h-.229c-.427 0-.871-.174-.871-.653a4.928 4.928 0 01.392-1.611l1.41-3.848a.279.279 0 01.261-.2h5.738a.2.2 0 01.226.148l2.238 5.511a.461.461 0 01-.226.653c-.113.052-.174.052-.174.165s.4.148.871.174c1.741.061 3.561.061 3.927.061s.566-.061.566-.2-.165-.2-.3-.2a3.422 3.422 0 01-.993-.139c-.54-.174-1.219-.488-2.124-2.612-1.524-3.648-5.511-13.573-5.964-14.592-.252-.531-.34-.871-.592-.871s-.287.139-.592.932zm3.6-5.032c-.087 0-.113-.061-.087-.174l2.316-6.591c.139-.366.287-.366.427 0l2.464 6.573c0 .113 0 .174-.087.174zM129.139 18c-.061-.453-.2-.644-.374-.644s-.279.165-.392.392l-7.243 14.903-7.523-14.931a.557.557 0 00-.5-.366c-.148 0-.261.165-.287.418L111 33.443c-.113.871-.139 1.785-.958 1.924a4.353 4.353 0 01-.74.087c-.139 0-.252.087-.252.165s.174.235.427.235c.679 0 1.863-.087 2.089-.087s1.384.087 2.325.087c.279 0 .453-.061.453-.235s-.113-.165-.2-.165a4.022 4.022 0 01-.966-.139.679.679 0 01-.592-.679v-1.219l.966-10.857h.183c.427.984 2.429 5.032 3.169 6.556.618 1.306 2.264 4.353 2.908 5.572.479.871.627 1.106.871 1.106s.366-.226.871-1.271l6-12.276h.061l1.185 12.189c.061.453 0 .818-.113.871a.2.2 0 00-.165.2c0 .113.113.2.705.252.871.087 3.674.148 4.24.148.287 0 .514-.087.514-.235s-.087-.165-.2-.165a5.224 5.224 0 01-1.611-.226c-1.019-.34-1.193-1.645-1.28-2.49L129.2 17.99zm3.587 8.706a9.525 9.525 0 019.874-9.386c5.6 0 9.847 3.422 9.847 9.02a9.638 9.638 0 01-9.977 9.855c-6.817 0-9.734-5.128-9.734-9.455zm2.612-.653c0 5.607 3.361 9.107 7.836 9.107 2.238 0 6.73-1.184 6.73-8.14 0-5.772-3.482-8.8-7.435-8.8-4.162 0-7.157 2.612-7.157 7.836zm21.47-4.832c.766.871 3.561 3.787 6.443 6.817 2.612 2.742 6.225 6.277 6.477 6.5 1.393 1.28 1.645 1.471 1.9 1.471s.2-.139.2-1.741l.052-14.087c0-1.445.061-1.924.871-2.089a2.612 2.612 0 01.592-.061.279.279 0 00.287-.226c0-.139-.2-.165-.453-.165-1.019 0-1.837.052-2.124.052s-1.471-.052-2.612-.052c-.279 0-.479 0-.479.165s0 .226.2.226a7.7 7.7 0 011.21.113c.766.139.871.679.94 2.237l.252 12.041c-.766-.784-3.422-3.648-5.885-6.19-3.848-3.961-7.47-7.836-7.836-8.2-.252-.252-.679-.731-.958-.731s-.34.252-.34 1.21v13.835c0 2.177-.087 2.83-.714 3a3.874 3.874 0 01-1.019.139.192.192 0 00-.192.2c0 .174.139.2.392.2 1.132 0 2.177-.087 2.4-.087s1.219.087 2.612.087c.287 0 .453-.061.453-.2a.192.192 0 00-.192-.2 5.886 5.886 0 01-1.245-.139c-.679-.174-.871-.766-.966-2.751l-.274-11.314zm20.555 7.644a49.939 49.939 0 01-.139 5.224c-.113.705-.174 1.158-.653 1.271a3.875 3.875 0 01-.766.113.2.2 0 00-.2.2c0 .139.148.2.4.2a13.267 13.267 0 001.5-.061 5.059 5.059 0 011.019 0l2.037.139c1.071.061 2.4.148 3.482.148 4.24 0 6.477-1.68 7.548-2.777a9.655 9.655 0 002.69-6.765 8.436 8.436 0 00-2.438-6.094c-2.943-2.969-7.5-2.742-9.986-2.742-1.471 0-3.047.052-3.334.052-.139 0-1.741-.052-2.882-.052-.287 0-.4.052-.4.192a.244.244 0 00.2.2 6.669 6.669 0 01.871.061c.818.1.958.5 1.01 1.323s.061 1.445.061 5.18v4.188zm2.264-9.673c0-.287.087-.4.313-.479a6.356 6.356 0 011.5-.174c2.969 0 5.711.313 8.062 2.69a8.332 8.332 0 012.342 6.025c0 2.2-.653 4.492-1.95 5.711a8.358 8.358 0 01-5.824 2.177c-2.943 0-3.822-.5-4.127-.958a4.492 4.492 0 01-.287-1.741V19.217zm23.585 8.454c0 2.716 0 4.954-.139 6.138-.113.818-.252 1.445-.818 1.558a4.675 4.675 0 01-.871.113c-.165 0-.226.087-.226.165s.148.235.453.235 1.08-.061 1.645-.061h1.132c.061 0 .871 0 1.741.087s1.741.087 2.037.087c4.832 0 7.209-3.152 7.209-6.173 0-3.308-2.795-5.32-4.893-5.972 1.332-1.384 2.612-2.769 2.612-5.084 0-1.419-1.01-4.249-5.65-4.249-1.306 0-2.4.087-3.082.087-.148 0-1.924-.087-3.2-.087-.313 0-.453.061-.453.226s.113.174.226.174a4.9 4.9 0 01.958.087c.932.192 1.158.644 1.219 1.611s.052 1.741.052 6.094v4.98zm2.264-11.936c0-.165.087-.252.34-.3a6.364 6.364 0 011.358-.148c2.769 0 3.822 2.516 3.822 4.867a4.353 4.353 0 01-1.019 2.856c-.6.679-.993.74-2.612.74a10.2 10.2 0 01-1.741-.113.279.279 0 01-.2-.313v-7.564zm0 8.967c0-.139.061-.2.174-.2.418 0 1.837 0 2.2.061a4.693 4.693 0 012.351.818 6.782 6.782 0 012.786 5.685A3.77 3.77 0 01209 35.054a6.521 6.521 0 01-2.49-.427c-.871-.418-.871-.818-.966-2.2V24.7zm12.641 8.541l5.859-15.044c.313-.792.427-.932.592-.932s.34.34.592.871c.453 1.019 4.44 10.944 5.972 14.592.871 2.15 1.585 2.464 2.116 2.612a3.483 3.483 0 00.993.139c.139 0 .313.052.313.2s-.287.2-.566.2-2.2 0-3.935-.061c-.479 0-.871 0-.871-.174s.052-.113.165-.165a.453.453 0 00.226-.653l-2.229-5.511c-.061-.113-.087-.148-.226-.148h-5.746a.261.261 0 00-.252.2l-1.42 3.873a4.928 4.928 0 00-.366 1.611c0 .479.427.653.871.653h.226c.192 0 .252.087.252.2s-.139.2-.366.2c-.6 0-1.959-.087-2.238-.087s-1.5.087-2.525.087c-.3 0-.479-.061-.479-.2a.218.218 0 01.226-.2 5.642 5.642 0 00.74-.061c1.132-.139 1.611-.984 2.089-2.2zm3.578-5.032h5.032c.113 0 .113-.061.087-.174l-2.464-6.591q-.209-.548-.418 0l-2.307 6.573c0 .113 0 .174.087.174zm16.664-6.965c.757.871 3.561 3.787 6.443 6.817 2.612 2.742 6.225 6.277 6.477 6.5 1.384 1.28 1.645 1.471 1.9 1.471s.2-.139.2-1.741l.052-14.087c0-1.445.061-1.924.871-2.089a2.612 2.612 0 01.592-.061.279.279 0 00.287-.226c0-.139-.2-.165-.453-.165-1.019 0-1.846.052-2.124.052s-1.471-.052-2.612-.052c-.279 0-.479 0-.479.165s0 .226.2.226a7.7 7.7 0 011.21.113c.766.139.871.679.932 2.238l.261 12.041c-.766-.784-3.422-3.648-5.885-6.19-3.848-3.961-7.47-7.836-7.836-8.2-.252-.252-.679-.731-.966-.731s-.34.252-.34 1.21v13.834c0 2.177-.078 2.83-.705 3a3.875 3.875 0 01-1.019.139.192.192 0 00-.192.2c0 .174.139.2.392.2 1.132 0 2.177-.087 2.4-.087s1.219.087 2.612.087c.287 0 .453-.061.453-.2a.192.192 0 00-.192-.2 5.834 5.834 0 01-1.245-.139c-.679-.174-.871-.766-.966-2.751l-.279-11.318zm20.024 7.635a49.935 49.935 0 01-.139 5.224c-.113.705-.174 1.158-.653 1.271a3.874 3.874 0 01-.766.113.2.2 0 00-.2.2c0 .139.148.2.4.2.766 0 2.264-.087 2.464-.087s1.689.087 2.908.087c.287 0 .4-.087.4-.2a.2.2 0 00-.2-.2 8.088 8.088 0 01-.966-.113c-.757-.113-.871-.566-.958-1.271-.113-.993-.113-2.89-.113-5.224V26.5h.113c1.184 1.419 6.416 6.965 7.548 7.836a5.293 5.293 0 003.047 1.489 15.026 15.026 0 001.741.061h1.271c.427 0 .54-.087.54-.2s-.139-.2-.313-.2a5.441 5.441 0 01-1.524-.34c-1.193-.479-1.471-.792-3.561-2.664-1.019-.932-6.2-6.094-6.852-6.808.54-.6 4.78-4.667 5.407-5.224a8.707 8.707 0 012.612-2.037 4.048 4.048 0 011.384-.34c.2 0 .252-.087.252-.2s-.113-.165-.366-.165c-.627 0-2.264.052-2.4.052-.592 0-1.358-.052-1.872-.052-.165 0-.279.052-.279.165a.261.261 0 00.226.226c.2 0 .313.165.313.479s-.653 1.019-1.358 1.741c-.932.966-5.38 5.346-5.772 5.8h-.117V24.65c0-3.735 0-4.414.061-5.18s.226-1.184.871-1.323a2.725 2.725 0 01.627-.061.209.209 0 00.192-.2c0-.139-.113-.192-.392-.192-.74 0-2.238.052-2.464.052s-1.663-.052-2.795-.052c-.287 0-.4.052-.4.192a.244.244 0 00.2.2 6.416 6.416 0 01.871.061c.827.1.966.5 1.019 1.323s.061 1.445.061 5.18z" transform="translate(-8.24 -2.88)" fill="#be995f"/></g><g filter="url(#Path_11)" transform="translate(-.002)"><path id="Path_11-2" data-name="Path 11" d="M39.633 34.322l-6.225-10.883 6.172-10.778a.348.348 0 000-.322.313.313 0 00-.27-.157l-12.528-.044L20.5 1.317a.3.3 0 00-.27-.157.3.3 0 00-.27.157l-6.298 10.822-12.528.044a.313.313 0 00-.27.157.3.3 0 000 .3l6.207 10.878L.864 34.383a.3.3 0 000 .3.331.331 0 00.279.165h12.51l6.3 10.865a.34.34 0 00.27.157.348.348 0 00.287-.183l6.286-10.8H39.31a.444.444 0 00.34-.192.3.3 0 00-.017-.374zm-7.5-9.908l-7.731 4.1 4.527-7.905 5.8-5.111 3.761-2.168zm-3.482 2.534l4.667 4.1-5.885-1.994-.052-1.41zm-1.881 2.029h-1.912l1.907-.966zm-3.422 0h-6.282l-3.16-5.468 3.16-5.476h6.321l3.169 5.441zm4.884-8.489l-1 1.741.081-2.229zm-.875-1.188l.052-1.332 5.781-1.933L28.671 20zm10.8-6.512l-3.735 2.159-6.965 2.342.131-3.7a.331.331 0 000-.183l-.383-.67zM20.531 2.623q3.213 5.511 6.425 11.039l-.313 8.706-4.588-7.836q-.757-3.8-1.524-7.583zm2.116 14.147l-1.837-1.149.871-.531zm-2.42-8.21l1.193 5.946-1.193.749-1.193-.74zm-.313-5.938v4.354l-1.445 7.2-3.162-1.976a.331.331 0 00-.165-.044h-.766zm-4.859 10.135l7.418 4.64-9.107.044-7.331-2.49L2.283 12.8zm.54 5.293l-1.907 1.01v-1zm-2.516 1.332l-1.245.662-4.562-4 5.755 1.941zM1.978 13.34l3.752 2.168 5.511 4.849-3.3 1.75a.235.235 0 00-.122.122l-.383.662zm6.347 9.272l7.722-4.1-4.519 7.905-5.806 5.075L1.969 33.7zm3.883 3.866l.958-1.689-.078 2.168zm.871 1.167l-.052 1.41L7.272 31l4.553-4.014zm-10.8 6.591l3.752-2.168L13 29.716l-.131 3.726a.374.374 0 000 .165l.392.662zm11.2-.871l.313-8.706 4.588 7.836 1.524 7.583v4.352zm4.353-3.117l1.846 1.152-.871.54zm2.386 8.21l-1.193-5.964 1.193-.749 1.193.749zm.313 5.92v-4.353l1.445-7.191 3.143 1.959a.322.322 0 00.174.061h.775zm4.815-10.1l-7.418-4.649H27.1l7.318 2.471 3.761 2.168zm9.429-2.786l-5.511-4.858 3.221-1.741a.348.348 0 00.131-.122l.418-.74 5.5 9.577z" transform="translate(-.82 -1.16)" fill="#be995f"/></g><g filter="url(#Path_12)" transform="translate(-.002)"><path id="Path_12-2" data-name="Path 12" d="M209.926 50.232v-2.09c0-.348-.078-.488-.409-.531h-.34a.1.1 0 01-.087-.078c0-.052.044-.078.165-.078H213a2.411 2.411 0 00.461-.052c.052 0 .1-.052.131-.052s.07 0 .07.087-.044.183-.078.461a3.252 3.252 0 01-.044.636c-.044.113 0 .1-.1.1s-.078-.052-.078-.113a1.1 1.1 0 00-.087-.366.749.749 0 00-.688-.287h-1.637c-.061 0-.078 0-.078.1v2.612c0 .061 0 .1.07.1h1.367a3.717 3.717 0 00.453 0 .618.618 0 00.47-.165c.044-.061.087-.1.122-.1s.052 0 .052.078a3.587 3.587 0 00-.087.531v.653c0 .07 0 .192-.087.192s-.07 0-.07-.087a1.844 1.844 0 00-.07-.357c-.044-.131-.209-.261-.514-.3s-1.437 0-1.6 0-.07 0-.07.1v.775c0 .949 0 1.741.044 2.089s.1.47.366.514a3.388 3.388 0 00.453 0 .078.078 0 01.078.078c0 .052-.044.087-.157.087h-2.238c-.1 0-.165 0-.165-.087a.087.087 0 01.078-.078h.313c.1 0 .218-.226.261-.514s.059-1.168.059-2.1z" transform="translate(-27.77 -7.14)" fill="#fff"/></g><g filter="url(#Path_13)" transform="translate(-.002)"><path id="Path_13-2" data-name="Path 13" d="M218.754 51.95v2.089c0 .4.07.47.366.514a3.368 3.368 0 00.461 0 .087.087 0 01.078.078c0 .052-.052.087-.165.087h-2.238c-.1 0-.157 0-.157-.087a.078.078 0 01.078-.078 1.227 1.227 0 00.3 0c.192 0 .226-.226.261-.514s.061-1.158.061-2.089v-3.831c0-.348-.1-.479-.322-.522h-.3a.087.087 0 01-.078-.078c0-.052.044-.078.157-.078h2.02c.113 0 .157 0 .157.078a.1.1 0 01-.078.078.984.984 0 00-.252 0c-.27.052-.331.192-.348.531s0 .583 0 2.089z" transform="translate(-28.8 -7.15)" fill="#fff"/></g><g filter="url(#Path_14)" transform="translate(-.002)"><path id="Path_14-2" data-name="Path 14" d="M224 53.418c0 .792.113 1.036.392 1.106a2.447 2.447 0 00.5.052.078.078 0 01.087.078c0 .061-.07.087-.183.087h-2.029c-.1 0-.157 0-.157-.087a.078.078 0 01.078-.078 1.628 1.628 0 00.409-.052c.252-.07.287-.331.287-1.21v-5.538c0-.392.052-.5.131-.5s.287.2.392.3 1.611 1.741 3.16 3.3c.993 1.027 2.063 2.177 2.368 2.5l-.1-4.849c0-.627-.061-.871-.374-.871a3.327 3.327 0 00-.488-.052c-.07 0-.078-.052-.078-.087s.078-.07.192-.07h1.913c.1 0 .183 0 .183.07a.1.1 0 01-.113.087.975.975 0 00-.235 0c-.331.07-.357.261-.357.871v5.668c0 .636 0 .688-.078.688s-.2-.078-.757-.592c-.1-.087-1.55-1.506-2.612-2.612l-2.612-2.742z" transform="translate(-29.52 -7.13)" fill="#fff"/></g><g filter="url(#Path_15)" transform="translate(-.002)"><path id="Path_15-2" data-name="Path 15" d="M235.166 50.238v-2.089c0-.348-.078-.488-.409-.531h-.34a.1.1 0 01-.087-.078c0-.052.052-.078.165-.078h3.552l.453-.061h.131c.044 0 .052 0 .052.087a3.65 3.65 0 00-.078.461 2.343 2.343 0 01-.061.636c-.061.113 0 .1-.087.1s-.078-.052-.078-.131a1.123 1.123 0 00-.061-.34c-.07-.157-.174-.226-.714-.3h-1.445c-.113 0-.061 0-.061.1v2.612c0 .07 0 .1.061.1h1.672c.226 0 .383 0 .488-.139s.113-.122.148-.122.061 0 .061.078-.061.218-.087.531-.044.566-.044.627 0 .183-.087.183-.07 0-.07-.087a.914.914 0 000-.322c0-.131-.131-.244-.514-.3a14.484 14.484 0 00-1.515 0c-.165 0-.07 0-.07.07V53.7c0 .653.209.775 1.193.775a3.273 3.273 0 001-.1.74.74 0 00.461-.67c0-.113.044-.148.1-.148s.061.078.061.148a8.7 8.7 0 01-.131.932c-.07.252-.174.252-.557.252h-3.622c-.1 0-.165 0-.165-.087a.087.087 0 01.087-.078h.3c.1 0 .218-.226.261-.514a18.4 18.4 0 00.061-2.089z" transform="translate(-31.03 -7.14)" fill="#fff"/></g><g filter="url(#Path_16)" transform="translate(-.002)"><path id="Path_16-2" data-name="Path 16" d="M248.362 52.563a6.67 6.67 0 01-.331 2.856 3.656 3.656 0 01-1.471 1.48 3.289 3.289 0 01-.409.252h-.07s-.061 0-.061-.052 0-.1.122-.165a1.515 1.515 0 00.348-.261c.653-.644.958-1.149.958-3.639v-4.876c0-.348-.078-.488-.409-.531h-.348a.1.1 0 01-.078-.078c0-.052.052-.078.165-.078h2.133c.113 0 .165 0 .165.078a.1.1 0 01-.087.078.958.958 0 00-.244 0c-.279.052-.331.192-.357.531s0 .583 0 2.089z" transform="translate(-32.54 -7.15)" fill="#fff"/></g><g filter="url(#Path_17)" transform="translate(-.002)"><path id="Path_17-2" data-name="Path 17" d="M253.3 50.238v-2.089c0-.348-.078-.488-.409-.531h-.34a.1.1 0 01-.078-.078c0-.052.044-.078.157-.078h3.552l.453-.061h.139c.052 0 .044 0 .044.087a3.644 3.644 0 00-.078.461 2.344 2.344 0 01-.061.636c-.061.113 0 .1-.087.1s-.078-.052-.078-.131a1.122 1.122 0 00-.061-.34c-.07-.157-.165-.226-.714-.3h-1.449c-.113 0-.061 0-.061.1v2.612c0 .07 0 .1.061.1h1.672c.226 0 .383 0 .488-.139s.113-.122.148-.122.061 0 .061.078a4.305 4.305 0 00-.078.531c0 .2-.052.566-.052.627s0 .183-.087.183-.07 0-.07-.087a.914.914 0 00-.044-.322c0-.131-.131-.244-.514-.3a14.5 14.5 0 00-1.515 0c-.174 0-.07 0-.07.07V53.7c0 .653.209.775 1.193.775a3.212 3.212 0 001-.1.723.723 0 00.461-.67c0-.113.044-.148.1-.148s.061.078.061.148a8.708 8.708 0 01-.131.932c-.07.252-.174.252-.557.252h-3.616c-.1 0-.157 0-.157-.087a.078.078 0 01.078-.078h.3c.087 0 .218-.226.261-.514a18.4 18.4 0 00.061-2.089z" transform="translate(-33.38 -7.14)" fill="#fff"/></g><g filter="url(#Path_18)" transform="translate(-.002)"><path id="Path_18-2" data-name="Path 18" d="M267.857 53.332h.044c.253-.8 1.149-3.6 1.506-4.841a1.958 1.958 0 00.148-.557c0-.174-.078-.287-.531-.287a.1.1 0 01-.1-.087c0-.044.044-.07.174-.07h1.828c.1 0 .139 0 .139.061a.087.087 0 01-.1.1 1.785 1.785 0 00-.34.052c-.3.1-.453.488-.644 1.019-.444 1.228-1.437 4.3-1.837 5.38-.261.723-.313.871-.427.871s-.2-.122-.331-.5l-1.959-5.3c-.34.871-1.741 4.353-2.063 5.293-.165.409-.235.514-.348.514s-.183-.1-.392-.766l-1.741-5.729c-.157-.514-.261-.644-.522-.731a2.029 2.029 0 00-.453-.061.087.087 0 01-.087-.087c0-.044.061-.07.157-.07h2.229c.139 0 .183 0 .183.07s-.061.087-.1.087a.775.775 0 00-.348.061.192.192 0 00-.139.2 5.586 5.586 0 00.192.871c.157.609 1.184 4.162 1.306 4.562l2.055-5.441c.139-.392.209-.444.27-.444s.148.122.27.453z" transform="translate(-34.33 -7.15)" fill="#fff"/></g><g filter="url(#Path_19)" transform="translate(-.002)"><path id="Path_19-2" data-name="Path 19" d="M275.357 50.238v-2.089c0-.348-.078-.488-.409-.531h-.34a.1.1 0 01-.078-.078c0-.052.044-.078.157-.078h3.552l.453-.061h.139c.044 0 .044 0 .044.087s-.052.183-.078.461a2.721 2.721 0 01-.052.636c-.052.113-.052.1-.1.1s-.078-.052-.078-.131a1.07 1.07 0 00-.052-.34c-.07-.157-.174-.226-.723-.3h-1.442c-.113 0-.052 0-.052.1v2.612c0 .07 0 .1.052.1h1.672c.226 0 .392 0 .5-.139s.113-.122.148-.122.052 0 .052.078-.052.218-.078.531-.044.566-.044.627 0 .183-.1.183-.07 0-.07-.087a.914.914 0 00-.044-.322c0-.131-.122-.244-.514-.3a14.3 14.3 0 00-1.506 0c-.165 0-.07 0-.07.07V53.7c0 .653.2.775 1.193.775a3.273 3.273 0 001-.1.723.723 0 00.453-.67c0-.113.044-.148.1-.148s.07.078.07.148a7.139 7.139 0 01-.139.932c-.07.252-.165.252-.557.252h-3.631c-.1 0-.157 0-.157-.087a.087.087 0 01.078-.078h.3c.087 0 .218-.226.261-.514a18.393 18.393 0 00.061-2.089z" transform="translate(-36.23 -7.14)" fill="#fff"/></g><g filter="url(#Path_20)" transform="translate(-.002)"><path id="Path_20-2" data-name="Path 20" d="M284.4 51.975c0 1.428 0 2 .2 2.177s.548.226 1.332.226c.522 0 .975 0 1.21-.3a1.2 1.2 0 00.235-.548.123.123 0 01.1-.122c.052 0 .07.044.07.148a6.268 6.268 0 01-.148.966c-.07.226-.1.261-.636.261h-3.822c-.1 0-.165 0-.165-.087a.087.087 0 01.078-.078 1.3 1.3 0 00.313 0c.192 0 .218-.226.261-.514s.052-1.158.052-2.089v-3.827c0-.348-.078-.488-.409-.531h-.348a.1.1 0 01-.078-.078c0-.052.043-.078.157-.078h2.246q.157 0 .157.078a.087.087 0 01-.078.07h-.327c-.3.052-.348.2-.374.54s0 .583 0 2.089z" transform="translate(-37.28 -7.16)" fill="#fff"/></g><g filter="url(#Path_21)" transform="translate(-.002)"><path id="Path_21-2" data-name="Path 21" d="M291.417 50.246v-2.089c0-.348-.078-.488-.409-.531h-.34a.1.1 0 01-.078-.078c0-.052.044-.078.157-.078h2.438a3.326 3.326 0 011.863.418 1.741 1.741 0 01.7 1.323 2.847 2.847 0 01-1.254 2.2c.818 1.019 1.515 1.9 2.089 2.5a1.828 1.828 0 001.114.67 1.8 1.8 0 00.357 0 .1.1 0 01.087.078c0 .061-.052.087-.235.087h-.627a1.976 1.976 0 01-1.071-.2 4.954 4.954 0 01-1.367-1.393c-.418-.522-.871-1.149-1.08-1.41a.165.165 0 00-.139-.061h-1.271c-.044 0-.07 0-.07.078v.226c0 .932 0 1.68.044 2.081s.1.47.4.514a3.038 3.038 0 00.444 0 .07.07 0 01.078.078c0 .052-.044.087-.157.087h-2.22c-.1 0-.157 0-.157-.087a.078.078 0 01.078-.078 1.228 1.228 0 00.3 0c.192 0 .218-.226.261-.514a18.407 18.407 0 00.061-2.09zm.871.818a.148.148 0 00.07.122 3.483 3.483 0 001.106.148 1.323 1.323 0 00.749-.165 1.741 1.741 0 00.6-1.48 1.68 1.68 0 00-1.741-1.907 3.892 3.892 0 00-.714.061.113.113 0 00-.078.113z" transform="translate(-38.31 -7.15)" fill="#fff"/></g><g filter="url(#Path_22)" transform="translate(-.002)"><path id="Path_22-2" data-name="Path 22" d="M301.853 52.286a1.741 1.741 0 00-.218-.993c-.078-.148-1.437-2.3-1.741-2.812a2.376 2.376 0 00-.662-.705 1.054 1.054 0 00-.418-.139.1.1 0 01-.1-.087c0-.044 0-.07.131-.07h1.855c.113 0 .131 0 .131.07s-.061.07-.157.1-.122.078-.122.157a.87.87 0 00.131.374l1.828 3.021c.2-.418 1.454-2.481 1.637-2.8a1.044 1.044 0 00.165-.5.218.218 0 00-.157-.244.146.146 0 01-.148-.113c0-.044.061-.061.157-.061h1.68c.061 0 .122 0 .122.061a.113.113 0 01-.122.1.993.993 0 00-.47.131 1.793 1.793 0 00-.5.479 30.428 30.428 0 00-1.941 3.073 1.88 1.88 0 00-.122.966v1.793c0 .4.087.47.383.514a3.265 3.265 0 00.453 0 .078.078 0 01.078.078c0 .052-.052.087-.157.087h-2.237c-.113 0-.165 0-.165-.087a.087.087 0 01.078-.078 1.106 1.106 0 00.3 0c.209 0 .279-.226.3-.514s0-.81 0-.966z" transform="translate(-39.36 -7.15)" fill="#fff"/></g></g></svg>