<svg id="Icon_ionic-logo-instagram" data-name="Icon ionic-logo-instagram" xmlns="http://www.w3.org/2000/svg" width="20" height="20" viewBox="0 0 20 20"><path id="Path_7" data-name="Path 7" d="M18.667 6.167a4.179 4.179 0 014.167 4.167v8.333a4.179 4.179 0 01-4.167 4.167h-8.334a4.179 4.179 0 01-4.167-4.167v-8.334a4.179 4.179 0 014.167-4.167h8.333m0-1.667h-8.333A5.85 5.85 0 004.5 10.333v8.333a5.85 5.85 0 005.833 5.834h8.333a5.85 5.85 0 005.834-5.833v-8.334A5.85 5.85 0 0018.667 4.5z" transform="translate(-4.5 -4.5)" fill="#E6C07F"/><path id="Path_8" data-name="Path 8" d="M24.875 11.5a1.25 1.25 0 111.25-1.25 1.247 1.247 0 01-1.25 1.25z" transform="translate(-9.458 -5.667)" fill="#E6C07F"/><path id="Path_9" data-name="Path 9" d="M16.25 12.917a3.333 3.333 0 11-3.333 3.333 3.336 3.336 0 013.333-3.333m0-1.667a5 5 0 105 5 5 5 0 00-5-5z" transform="translate(-6.25 -6.25)" fill="#E6C07F"/></svg>