<svg xmlns="http://www.w3.org/2000/svg" width="20" height="20" viewBox="0 0 20 20"><path id="Icon_awesome-line" data-name="Icon awesome-line" d="M12.147 9.937v3.174a.141.141 0 01-.143.143H11.5a.148.148 0 01-.116-.058l-1.46-1.964v1.884a.141.141 0 01-.143.143h-.509a.141.141 0 01-.143-.143V9.942a.141.141 0 01.143-.142h.5a.135.135 0 01.116.063l1.455 1.964V9.942a.141.141 0 01.143-.143H12a.141.141 0 01.147.138zm-3.66-.142h-.509a.141.141 0 00-.143.143v3.174a.141.141 0 00.143.143h.509a.141.141 0 00.143-.143V9.937a.144.144 0 00-.143-.142zm-1.228 2.66H5.871V9.937a.141.141 0 00-.143-.143h-.509a.141.141 0 00-.143.143v3.174a.131.131 0 00.04.1.151.151 0 00.1.04h2.04a.141.141 0 00.143-.143V12.6a.143.143 0 00-.138-.143zm7.567-2.661h-2.04a.144.144 0 00-.143.143v3.174a.144.144 0 00.143.143h2.04a.141.141 0 00.143-.143V12.6a.141.141 0 00-.143-.143h-1.389v-.536h1.388a.141.141 0 00.143-.143v-.513a.141.141 0 00-.143-.143h-1.388v-.536h1.388a.141.141 0 00.143-.143v-.506a.15.15 0 00-.143-.143zM20 5.9v12.734a3.636 3.636 0 01-3.647 3.616H3.616A3.639 3.639 0 010 18.6V5.866A3.639 3.639 0 013.647 2.25h12.737A3.636 3.636 0 0120 5.9zm-2.75 5.473c0-3.259-3.268-5.911-7.281-5.911s-7.282 2.65-7.282 5.909c0 2.92 2.589 5.366 6.089 5.83.853.183.754.5.563 1.643-.031.183-.147.719.629.393a23.531 23.531 0 005.723-4.228 5.274 5.274 0 001.559-3.638z" transform="translate(0 -2.25)" fill="#E6C07F"/></svg>